<?xml version="1.0" encoding="UTF-8"?>
<svg version="1.1" xmlns="http://www.w3.org/2000/svg" width="1200" height="1200">
<path d="M0 0 C0.83915955 0.00060425 1.67831909 0.0012085 2.54290771 0.00183105 C14.90732645 0.02598434 27.14364601 0.19398464 39.375 2.1875 C40.2004834 2.32172363 41.0259668 2.45594727 41.87646484 2.59423828 C62.69318139 6.1189889 82.7415108 13.0310618 101.15234375 23.4140625 C102.21582031 23.99929687 103.27929688 24.58453125 104.375 25.1875 C105.05240234 25.56398682 105.72980469 25.94047363 106.42773438 26.32836914 C113.30307135 29.97392656 120.47220607 32.34887364 127.85961914 34.69284058 C151.60896275 42.26197879 174.07168811 52.0692499 196.375 63.1875 C197.1592334 63.57760254 197.9434668 63.96770508 198.75146484 64.36962891 C233.37744691 81.74895324 265.27922645 104.85239594 293.86328125 130.921875 C295.24825166 132.17114846 296.63976655 133.41370197 298.05786133 134.62524414 C303.62039231 139.39221782 308.82734987 144.48665507 313.9934082 149.67553711 C315.43525221 151.12274385 316.88237116 152.56452026 318.33007812 154.00585938 C323.55828802 159.23003991 328.58217726 164.56147892 333.375 170.1875 C334.30023213 171.23601146 335.22723574 172.28296316 336.15625 173.328125 C344.81218483 183.17977929 352.64224738 193.60295209 360.375 204.1875 C360.91157227 204.9187207 361.44814453 205.64994141 362.00097656 206.40332031 C385.192844 238.13568496 403.97009953 273.35274821 418.125 310 C418.50712646 310.9868428 418.50712646 310.9868428 418.89697266 311.99362183 C421.4604681 318.65194962 423.86847973 325.20670548 425.375 332.1875 C426.65375 331.98125 427.9325 331.775 429.25 331.5625 C438.93430928 330.54708729 446.64656753 333.38449015 454.375 339.1875 C461.17685701 345.28873655 464.33760603 352.68940773 465.25 361.6875 C465.7010436 371.64515477 463.55305881 379.21410787 457.375 387.1875 C456.30507812 387.81011719 455.23515625 388.43273437 454.1328125 389.07421875 C452.45545851 390.28088902 452.45545851 390.28088902 451.375 392.1875 C450.89565013 397.08496366 451.46365766 401.87773474 452 406.75 C452.24590036 409.37595705 452.48813379 412.00226026 452.7265625 414.62890625 C452.84563965 415.91410156 452.9647168 417.19929688 453.08740234 418.5234375 C453.88831052 428.72719805 453.19472543 438.86973736 452.5 449.0625 C452.38205078 450.95162109 452.38205078 450.95162109 452.26171875 452.87890625 C451.84955485 459.04868282 451.28149707 465.11905809 450.33203125 471.23046875 C449.25473907 478.37430011 449.05175389 485.41061631 448.9375 492.625 C446.52147839 595.28866112 408.82879091 697.62962575 342.375 776.1875 C341.55 777.18523438 340.725 778.18296875 339.875 779.2109375 C329.70665688 791.46321886 318.73151376 802.91009873 307.5 814.1875 C306.71560547 814.97656738 305.93121094 815.76563477 305.12304688 816.57861328 C300.36789374 821.32065848 295.47207299 825.81742419 290.375 830.1875 C289.32677517 831.11305685 288.27982293 832.04005769 287.234375 832.96875 C277.38272071 841.62468483 266.95954791 849.45474738 256.375 857.1875 C255.6437793 857.72407227 254.91255859 858.26064453 254.15917969 858.81347656 C191.72762136 904.44210968 117.13700795 932.894692 40.5625 942.4375 C39.89653809 942.52058411 39.23057617 942.60366821 38.54443359 942.68927002 C25.31273244 944.32027804 12.19103836 945.34045737 -1.1484375 945.390625 C-3.02675011 945.40114647 -3.02675011 945.40114647 -4.94300842 945.41188049 C-8.96204558 945.42929091 -12.98093323 945.43631428 -17 945.4375 C-17.68432728 945.43794186 -18.36865456 945.43838371 -19.07371902 945.43883896 C-39.40166518 945.44572508 -59.47429956 945.21376351 -79.625 942.1875 C-80.84912598 942.01057617 -82.07325195 941.83365234 -83.33447266 941.65136719 C-137.76091029 933.63995054 -198.29771395 918.15462807 -244.95214844 887.66674805 C-248.25396598 885.83940858 -251.62155819 884.91683389 -255.25 883.98828125 C-256.76775611 883.58361412 -258.28541186 883.17857041 -259.80297852 882.77319336 C-260.591492 882.56532196 -261.38000549 882.35745056 -262.19241333 882.14328003 C-276.70863425 878.30456993 -290.73245324 873.92735481 -304.625 868.1875 C-305.615 867.8575 -306.605 867.5275 -307.625 867.1875 C-308.24375 868.074375 -308.8625 868.96125 -309.5 869.875 C-313.58016758 874.82278942 -319.65987855 877.19912618 -325.625 879.1875 C-336.62550331 880.1331363 -345.22224707 879.67109761 -354.625 873.1875 C-357.625 870.625 -357.625 870.625 -359.625 868.1875 C-360.32625 867.424375 -361.0275 866.66125 -361.75 865.875 C-367.21245584 858.04547996 -368.36709229 848.94726745 -367 839.625 C-366.03962525 834.84341585 -364.2169315 831.25166475 -361.453125 827.2578125 C-360.36506336 825.14561868 -360.36506336 825.14561868 -361.3203125 822.69921875 C-362.54233053 820.34665111 -363.82783274 818.11153679 -365.25 815.875 C-372.86681706 803.35369586 -379.42104537 789.74518075 -383.68359375 775.69921875 C-386.41483884 766.8651916 -390.60479676 760.7437999 -396.234375 753.59375 C-406.1195694 740.96844908 -414.65631621 727.09138019 -422.625 713.1875 C-423.01075195 712.51750977 -423.39650391 711.84751953 -423.79394531 711.15722656 C-460.87219721 646.45672104 -484.54721018 570.7100205 -484.828125 495.6640625 C-484.83495804 494.41081177 -484.84179108 493.15756104 -484.84883118 491.86633301 C-484.8657909 487.84835634 -484.87222779 483.83050353 -484.875 479.8125 C-484.876031 479.13156029 -484.877062 478.45062057 -484.87812424 477.74904633 C-484.9086352 456.32656341 -484.54513452 435.14497538 -481.09765625 413.94458008 C-480.54281154 409.53419513 -480.39706083 405.19418612 -480.30859375 400.75390625 C-480.28781265 399.87596909 -480.26703156 398.99803192 -480.24562073 398.0934906 C-480.18068055 395.31240015 -480.12150073 392.53122215 -480.0625 389.75 C-480.01926186 387.85480896 -479.97564595 385.9596265 -479.93164062 384.06445312 C-479.82505678 379.43888987 -479.72363592 374.81323929 -479.625 370.1875 C-480.57117188 369.88440918 -481.51734375 369.58131836 -482.4921875 369.26904297 C-489.45575618 366.86500546 -493.59493434 361.84473046 -497.0625 355.5 C-501.21533151 346.43619064 -501.92453312 336.66230612 -498.625 327.1875 C-494.37630395 318.06768745 -488.50881316 311.74434439 -479.13671875 307.94140625 C-470.35039495 305.30414265 -462.43765406 306.41004247 -453.625 308.1875 C-453.36509277 307.54651367 -453.10518555 306.90552734 -452.83740234 306.24511719 C-434.40735628 261.07672515 -410.3139349 218.45894156 -378.625 181.1875 C-378.17979004 180.65882324 -377.73458008 180.13014648 -377.27587891 179.58544922 C-366.80387936 167.15149913 -355.84869824 155.33026328 -344.375 143.8125 C-343.53517578 142.96800293 -342.69535156 142.12350586 -341.83007812 141.25341797 C-336.92181955 136.35776954 -331.89121117 131.69353768 -326.625 127.1875 C-325.57668301 126.26204754 -324.52973033 125.33504654 -323.484375 124.40625 C-313.63272071 115.75031517 -303.20954791 107.92025262 -292.625 100.1875 C-291.8937793 99.65092773 -291.16255859 99.11435547 -290.40917969 98.56152344 C-238.61317768 60.70597673 -177.61754462 34.00052682 -114.76953125 21.1796875 C-107.27717311 19.64574341 -100.37580986 17.83648608 -93.3125 14.875 C-64.0438768 2.74492048 -31.36885 -0.04183856 0 0 Z M-95.625 231.1875 C-96.42905273 231.42774902 -97.23310547 231.66799805 -98.06152344 231.91552734 C-132.98118917 242.54982555 -164.40635561 262.1810999 -191.625 286.1875 C-192.15641602 286.65575195 -192.68783203 287.12400391 -193.23535156 287.60644531 C-198.78919178 292.52939613 -204.17537656 297.49746 -208.9453125 303.203125 C-210.11061284 304.57980541 -211.31743226 305.9219828 -212.5546875 307.234375 C-256.09617573 353.48723796 -279.18799437 420.8484186 -277.52734375 483.89501953 C-276.5546984 508.73176796 -272.86994919 532.39984262 -265.625 556.1875 C-265.38475098 556.99155273 -265.14450195 557.79560547 -264.89697266 558.62402344 C-254.26267445 593.54368917 -234.6314001 624.96885561 -210.625 652.1875 C-210.15674805 652.71891602 -209.68849609 653.25033203 -209.20605469 653.79785156 C-204.28310387 659.35169178 -199.31504 664.73787656 -193.609375 669.5078125 C-192.23269459 670.67311284 -190.8905172 671.87993226 -189.578125 673.1171875 C-142.42239705 717.50861416 -74.82952806 739.57408867 -10.79272461 738.11523438 C30.00593714 736.60120274 68.17366405 725.91905723 104.375 707.1875 C105.15584961 706.7853125 105.93669922 706.383125 106.74121094 705.96875 C124.83080973 696.534971 140.93461195 684.09514821 155.96484375 670.375 C158.30081254 668.25483383 160.67826875 666.1905269 163.0625 664.125 C166.52831721 661.04764566 169.60530467 657.81935938 172.58984375 654.27734375 C173.79715083 652.8639755 175.04107871 651.48121533 176.31640625 650.12890625 C220.91156661 602.74141541 242.83150617 534.97002736 241.30273438 470.64282227 C238.88701596 408.68885752 215.2236505 351.50201975 174.375 305.1875 C173.67262207 304.39037598 173.67262207 304.39037598 172.95605469 303.57714844 C168.03310387 298.02330822 163.06504 292.63712344 157.359375 287.8671875 C155.98269459 286.70188716 154.6405172 285.49506774 153.328125 284.2578125 C87.91976043 222.68373137 -11.29024924 205.50186925 -95.625 231.1875 Z M-475.625 329.1875 C-479.69285632 334.65004992 -481.54002858 338.32478568 -480.625 345.1875 C-479.16607559 347.39055359 -479.16607559 347.39055359 -477.625 349.1875 C-477.09367611 346.60592632 -476.57465621 344.02288244 -476.0625 341.4375 C-475.83530273 340.34308594 -475.83530273 340.34308594 -475.60351562 339.2265625 C-474.87942822 335.52192927 -474.52682769 332.79427678 -475.625 329.1875 Z M444.375 362.1875 C445.375 364.1875 445.375 364.1875 445.375 364.1875 Z M-346.625 840.1875 C-348.01266322 846.24275768 -347.11618146 849.50760626 -344.625 855.1875 C-343.965 855.1875 -343.305 855.1875 -342.625 855.1875 C-342.295 856.1775 -341.965 857.1675 -341.625 858.1875 C-338.08147253 860.8198347 -335.02453552 861.92352787 -330.625 862.1875 C-326.84440955 861.33453322 -326.84440955 861.33453322 -323.625 860.1875 C-323.625 859.1975 -323.625 858.2075 -323.625 857.1875 C-325.97529319 855.34277009 -325.97529319 855.34277009 -329 853.5625 C-334.42304406 850.10153 -339.07206878 846.30286728 -343.76171875 841.875 C-345.32955802 840.07562009 -345.32955802 840.07562009 -346.625 840.1875 Z " fill="#A9A8A5" transform="translate(624.625,101.8125)"/>
<path d="M0 0 C2 1 2 1 2.6328125 2.84765625 C2.79523438 3.57855469 2.95765625 4.30945313 3.125 5.0625 C3.29257812 5.79597656 3.46015625 6.52945313 3.6328125 7.28515625 C3.75398437 7.85105469 3.87515625 8.41695312 4 9 C4.66 9 5.32 9 6 9 C6.20979492 9.51570557 6.41958984 10.03141113 6.63574219 10.56274414 C14.89450449 30.70730824 24.20938079 50.30845257 37 68 C37.73734375 69.02996094 38.4746875 70.05992187 39.234375 71.12109375 C44.80349891 78.71445596 50.81045638 85.91019915 57 93 C57.44021484 93.5048291 57.88042969 94.0096582 58.33398438 94.52978516 C62.94662094 99.78881138 67.61657143 104.78879262 72.98046875 109.28515625 C74.36935071 110.46449703 75.72508265 111.68364935 77.05078125 112.93359375 C117.05244459 150.58628204 171.42365923 171.16583981 225.37597656 177.05371094 C226.20735138 177.1452243 227.0387262 177.23673767 227.89529419 177.33102417 C229.93010123 177.55488036 231.96503767 177.77755985 234 178 C234.02354829 194.8747346 234.04108533 211.74946394 234.05181217 228.62421131 C234.05692919 236.46261462 234.0638822 244.30100762 234.07543945 252.1394043 C234.08552891 258.98567882 234.09188664 265.83194585 234.09408849 272.6782276 C234.09537188 276.29023809 234.09830177 279.90222722 234.10573006 283.51423073 C234.14170855 301.69858099 233.83014383 319.83302544 233 338 C231.41124939 338.00868176 229.82248494 338.01485118 228.23371887 338.01997375 C227.34897794 338.02368138 226.464237 338.02738901 225.55268574 338.03120899 C222.24991707 337.99082953 219.03660617 337.65162691 215.76171875 337.23046875 C213.80733887 336.9830896 213.80733887 336.9830896 211.81347656 336.73071289 C210.43811576 336.54991013 209.062791 336.36883297 207.6875 336.1875 C206.24321055 336.00151039 204.79887399 335.81588627 203.35449219 335.63061523 C194.1651716 334.44509019 184.98766266 333.18457705 175.8203125 331.83984375 C171.15216559 331.15840549 166.4792271 330.51470686 161.8046875 329.87890625 C145.88325049 327.70896224 129.99817768 325.42627417 114.14282227 322.81176758 C104.3535183 321.20010998 94.54898304 319.72382406 84.72436523 318.34350586 C80.37914799 317.71956157 76.09728691 317.09351749 71.84765625 315.98046875 C66.5800687 314.63816979 61.26655304 313.9137285 55.890625 313.14453125 C51.38185956 312.47039108 47.32149662 311.49407114 43 310 C40.75596463 309.5716435 38.50491615 309.17929313 36.25 308.8125 C3.28737495 302.96848159 -33.21307672 293.1348494 -58.515625 270.32421875 C-59.89305548 269.09540577 -61.30470574 267.90524691 -62.71875 266.71875 C-86.44089081 246.51100042 -96.54782966 213.15022552 -105 184.12890625 C-105.9669924 180.89941134 -105.9669924 180.89941134 -107.55078125 177.5546875 C-109.07195876 173.82349738 -109.69359393 170.55174133 -110.1875 166.5625 C-110.34605469 165.32628906 -110.50460938 164.09007812 -110.66796875 162.81640625 C-110.77753906 161.88699219 -110.88710937 160.95757813 -111 160 C-111.66 160 -112.32 160 -113 160 C-113.17128418 159.26885986 -113.34256836 158.53771973 -113.51904297 157.78442383 C-114.30035555 154.45949301 -115.08761486 151.13599775 -115.875 147.8125 C-116.14441406 146.66201172 -116.41382813 145.51152344 -116.69140625 144.32617188 C-116.95566406 143.21435547 -117.21992188 142.10253906 -117.4921875 140.95703125 C-117.85352783 139.42526245 -117.85352783 139.42526245 -118.22216797 137.86254883 C-118.96527494 135.12779389 -119.9398665 132.62419277 -121 130 C-122.14806305 126.0275433 -123.12442245 122.01188511 -124.125 118 C-124.54072266 116.37964844 -124.54072266 116.37964844 -124.96484375 114.7265625 C-125.22652344 113.68242188 -125.48820313 112.63828125 -125.7578125 111.5625 C-125.9964502 110.61503906 -126.23508789 109.66757812 -126.48095703 108.69140625 C-127.00507823 105.9736677 -127.32709887 103.75231972 -127 101 C-125.66162109 99.32177734 -125.66162109 99.32177734 -123.7734375 97.8359375 C-123.07742432 97.27600098 -122.38141113 96.71606445 -121.66430664 96.13916016 C-120.90883545 95.5569873 -120.15336426 94.97481445 -119.375 94.375 C-118.6111499 93.76833496 -117.8472998 93.16166992 -117.06030273 92.53662109 C-115.4862811 91.28935714 -113.90703733 90.04865631 -112.32275391 88.81445312 C-110.14002053 87.10937908 -107.97888689 85.38095383 -105.82421875 83.640625 C-104.57087552 82.63471475 -103.31699909 81.62946837 -102.0625 80.625 C-101.47839355 80.15497559 -100.89428711 79.68495117 -100.29248047 79.20068359 C-96.23180295 76 -96.23180295 76 -94 76 C-94 75.34 -94 74.68 -94 74 C-92.2003503 72.48077517 -90.39519662 71.07942605 -88.5 69.6875 C-83.26099551 65.75369446 -78.13101026 61.7136579 -73.0625 57.5625 C-65.22110454 51.15610053 -57.27261124 44.89622112 -49.29101562 38.66601562 C-42.47384281 33.34131394 -35.70345383 27.96744162 -29 22.5 C-23.84240504 18.29483551 -18.66530473 14.11767502 -13.4375 10 C-12.89029297 9.56751953 -12.34308594 9.13503906 -11.77929688 8.68945312 C-7.93412638 5.67261801 -3.99231797 2.81929138 0 0 Z " fill="#EBEBEC" transform="translate(358,661)"/>
<path d="M0 0 C9.90100358 1.34576748 19.83524555 1.6918884 29.8125 2.0625 C32.01612117 7.53462072 33.49948059 12.68534558 34.4375 18.5 C34.55867188 19.19931641 34.67984375 19.89863281 34.8046875 20.61914062 C36.19330279 28.83763001 36.97221338 36.96588687 37.05078125 45.30078125 C37.06039383 46.16800812 37.07000641 47.03523499 37.07991028 47.92874146 C37.1046062 50.74420142 37.11718506 53.5594442 37.125 56.375 C37.12828308 57.33793976 37.13156616 58.30087952 37.13494873 59.29299927 C37.1501105 73.12611063 36.52865045 86.75730083 34.9375 100.5 C34.85045807 101.26253082 34.76341614 102.02506165 34.67373657 102.81069946 C33.2141915 115.29025976 33.2141915 115.29025976 30.8125 121.0625 C30.58414535 123.01982561 30.3569998 124.97732501 30.14306641 126.9362793 C29.69605949 129.81145158 28.71103745 132.46760804 27.76879883 135.21240234 C26.61384938 138.6545468 25.54057023 142.12000888 24.47265625 145.58984375 C24.04496331 146.9733201 23.6172282 148.35678342 23.18945312 149.74023438 C22.53166793 151.86977416 21.87510472 153.99965835 21.22192383 156.13061523 C18.73132385 164.24823027 16.13123268 172.23772942 12.8125 180.0625 C12.43867187 180.97950684 12.06484375 181.89651367 11.6796875 182.84130859 C8.46055431 190.70411903 4.95653011 198.42156857 1.375 206.125 C0.82779297 207.31416016 0.28058594 208.50332031 -0.28320312 209.72851562 C-3.27514781 216.17624494 -6.4386713 222.4553884 -9.89624023 228.66503906 C-11.54709362 231.7301516 -12.86008561 234.84487858 -14.1875 238.0625 C-15.29351733 240.34263918 -16.42018904 242.61282523 -17.5625 244.875 C-18.25919268 246.2603774 -18.95580058 247.64579743 -19.65234375 249.03125 C-20.04405762 249.80855469 -20.43577148 250.58585938 -20.83935547 251.38671875 C-23.6070074 256.87992142 -26.36707005 262.37691124 -29.125 267.875 C-29.70491699 269.02653564 -30.28483398 270.17807129 -30.88232422 271.36450195 C-31.42518066 272.44691162 -31.96803711 273.52932129 -32.52734375 274.64453125 C-33.01581787 275.61624268 -33.50429199 276.5879541 -34.00756836 277.58911133 C-35.26999567 280.10489222 -35.26999567 280.10489222 -36.1875 283.0625 C-36.8475 283.0625 -37.5075 283.0625 -38.1875 283.0625 C-38.45304688 283.92568848 -38.71859375 284.78887695 -38.9921875 285.67822266 C-40.18607114 289.05845449 -41.62720509 292.0495398 -43.3125 295.2109375 C-43.93181396 296.37359131 -44.55112793 297.53624512 -45.18920898 298.73413086 C-45.85474099 299.96889194 -46.52084912 301.20334264 -47.1875 302.4375 C-47.52419708 303.06399445 -47.86089417 303.69048889 -48.20779419 304.33596802 C-53.17881034 313.57490447 -58.38421022 322.60154531 -64.11279297 331.39355469 C-65.85838124 334.10433193 -67.51656672 336.86779399 -69.1875 339.625 C-78.91467165 355.4340906 -89.6457583 370.52699594 -101.1875 385.0625 C-111.01506668 383.5036446 -120.70692798 370.92595574 -127.7421875 364.29296875 C-130.86868062 361.3489525 -134.05632842 358.4914331 -137.3125 355.69140625 C-139.57501181 353.72584911 -141.78440683 351.70576691 -144 349.6875 C-147.37690982 346.63391133 -150.81967132 343.71820795 -154.375 340.875 C-160.44070218 335.97246514 -166.06914977 330.63991963 -171.7421875 325.29296875 C-174.86525922 322.35217421 -178.05022092 319.49850823 -181.30078125 316.69921875 C-183.62408787 314.68376228 -185.90498465 312.62401538 -188.1875 310.5625 C-191.14619751 307.89201656 -194.11676472 305.23951942 -197.125 302.625 C-200.37577518 299.79537788 -203.56691255 296.90554304 -206.75 294 C-210.83363518 290.27467822 -214.96446174 286.62862119 -219.1875 283.0625 C-217.51773677 279.18827408 -214.9463105 276.12184864 -212.3125 272.875 C-201.55254425 259.34041941 -192.12505133 245.43518721 -184.1875 230.0625 C-183.7455127 229.22041992 -183.30352539 228.37833984 -182.84814453 227.51074219 C-151.74615003 167.73573394 -146.90410057 98.75922631 -165.52441406 34.41455078 C-166.49204702 30.98223269 -167.34437834 27.52732854 -168.1875 24.0625 C-163.16185101 22.53547816 -158.16923253 21.43935918 -152.98461914 20.58544922 C-152.19175035 20.45156516 -151.39888155 20.3176811 -150.58198643 20.17973995 C-147.96282865 19.73844532 -145.34276149 19.30281828 -142.72265625 18.8671875 C-140.86642656 18.55550172 -139.01025708 18.2434572 -137.15414429 17.93107605 C-132.20691545 17.09955589 -127.25887051 16.27300219 -122.31055832 15.44795609 C-117.21270757 14.5977096 -112.11528818 13.74488411 -107.01782227 12.89233398 C-100.96731888 11.8804375 -94.91676505 10.86885164 -88.8658905 9.85917664 C-77.96418267 8.03874949 -67.06845527 6.18926555 -56.1796875 4.29296875 C-52.9600083 3.73708493 -49.74016153 3.18218504 -46.52023315 2.62774658 C-44.62238893 2.29819292 -42.72531525 1.96416349 -40.82913208 1.62518311 C-27.07792052 -0.83134583 -13.9329002 -2.04588138 0 0 Z " fill="#EDEEEE" transform="translate(1019.1875,470.9375)"/>
<path d="M0 0 C0 0.66 0 1.32 0 2 C0.55945313 2.24621094 1.11890625 2.49242187 1.6953125 2.74609375 C4.43805569 4.238332 6.56004083 5.96572388 8.875 8.0625 C9.69742187 8.77535156 10.51984375 9.48820312 11.3671875 10.22265625 C13.53441333 13.90901407 12.73915861 15.40468921 11.74664307 19.40031433 C10.39635861 24.10177786 8.72586092 28.67270085 7.02734375 33.2578125 C6.43509003 34.8781414 6.43509003 34.8781414 5.83087158 36.53120422 C4.53825275 40.06438859 3.23787789 43.59466481 1.9375 47.125 C0.80072558 50.22677057 -0.33480737 53.32899244 -1.47003651 56.43132877 C-1.69787169 57.05390285 -1.92570688 57.67647692 -2.16044617 58.31791687 C-2.38881353 58.94194586 -2.6171809 59.56597485 -2.85246849 60.2089138 C-3.54918262 62.11177129 -4.2466873 64.01433727 -4.94441223 65.91682434 C-7.84517809 73.82830098 -10.72377792 81.74743794 -13.578125 89.67578125 C-13.93473709 90.66623947 -14.29134918 91.65669769 -14.6587677 92.6771698 C-15.36351183 94.6349113 -16.06820921 96.59266962 -16.77285767 98.55044556 C-24.42161995 119.79082065 -32.27903496 140.94892499 -40.27020264 162.06271362 C-40.78880047 163.43935948 -41.30376362 164.81737696 -41.81622314 166.19631958 C-43.8996504 171.7993008 -43.8996504 171.7993008 -45 174 C-50.5849147 173.37698163 -55.5994378 171.96770124 -60.9375 170.25 C-77.83462829 165.01574454 -95.33947663 161.3005239 -113 160 C-113.88107422 159.93296875 -114.76214844 159.8659375 -115.66992188 159.796875 C-148.83384568 157.45536239 -181.25393163 161.33117686 -213 171 C-213.80405273 171.24024902 -214.60810547 171.48049805 -215.43652344 171.72802734 C-250.3961229 182.37448681 -281.7099453 202.03175189 -309 226 C-310.48693359 227.30130859 -310.48693359 227.30130859 -312.00390625 228.62890625 C-317.42223969 233.45748911 -322.33253317 238.45019012 -327 244 C-329.25 246.5 -329.25 246.5 -331 248 C-331.99 248 -332.98 248 -334 248 C-335.68579102 245.75268555 -335.68579102 245.75268555 -337.50390625 242.63671875 C-338.49100586 240.96512695 -338.49100586 240.96512695 -339.49804688 239.25976562 C-340.18652843 238.06920149 -340.87467595 236.87844412 -341.5625 235.6875 C-342.25352365 234.50785743 -342.94556906 233.32881277 -343.63867188 232.15039062 C-344.91228863 229.98186749 -346.18107041 227.81049285 -347.44360352 225.63549805 C-348.57312672 223.72283875 -349.76785512 221.84821732 -351 220 C-350.80495936 214.44134165 -349.39885854 210.11840536 -347.23828125 205.03515625 C-345.68783624 201.23485412 -344.34519404 197.37677743 -343 193.5 C-341.38879802 188.87124617 -339.75445938 184.27846119 -337.875 179.75 C-336.46515205 176.31414832 -335.31147208 172.86592292 -334.24609375 169.30859375 C-331.69413786 160.93182795 -328.95348626 152.62071278 -326.1875 144.3125 C-325.92265808 143.51597015 -325.65781616 142.71944031 -325.38494873 141.89877319 C-322.0031554 131.74714431 -318.50498284 121.68636452 -314.48828125 111.765625 C-313.20397914 108.58075297 -312.08589442 105.36071425 -310.99829102 102.10424805 C-302.83490631 77.80008774 -291.41056165 54.21483043 -277 33 C-276.35417969 32.04609375 -275.70835937 31.0921875 -275.04296875 30.109375 C-270.37168435 23.44970275 -265.11974205 17.43675695 -259.50488281 11.57226562 C-258.48622947 10.50800094 -257.47268493 9.43882681 -256.46386719 8.36523438 C-250.58580101 2.12414352 -244.57463838 -3.64288124 -237.625 -8.6875 C-236.78714966 -9.30262451 -236.78714966 -9.30262451 -235.93237305 -9.93017578 C-232.0337752 -12.64430882 -228.55496976 -13.9217983 -224 -15 C-224 -15.66 -224 -16.32 -224 -17 C-153.60902922 -47.62266992 -61.10865135 -55.12133403 0 0 Z " fill="#E9EAEA" transform="translate(742,163)"/>
<path d="M0 0 C4.02296149 2.18389338 6.7959761 4.7543654 10 8 C12.02130111 9.91803044 14.07243497 11.80302098 16.125 13.6875 C16.69049561 14.20787842 17.25599121 14.72825684 17.83862305 15.2644043 C19.55751779 16.84465132 21.27829671 18.42281377 23 20 C23.50966309 20.46696289 24.01932617 20.93392578 24.54443359 21.41503906 C29.63753572 26.07594783 34.76181984 30.6938107 39.97265625 35.22265625 C42.33489173 37.29359487 44.66795853 39.39512848 47 41.5 C52.41263549 46.38037935 57.88760458 51.18201109 63.41015625 55.9375 C70.49650131 62.0468606 77.49103061 68.22886273 84.36328125 74.578125 C87.20890806 77.19188592 90.1032218 79.73987938 93.0234375 82.26953125 C95.29197508 84.25562246 97.51949746 86.28380483 99.75 88.3125 C105.35918629 93.37998918 111.16458961 98.19731688 117 103 C116.47084448 107.31790901 113.76103428 110.22984655 111.125 113.5 C110.63467285 114.11584961 110.1443457 114.73169922 109.63916016 115.36621094 C105.49787409 120.50812055 101.11961779 125.39616585 96.60546875 130.2109375 C94.2532008 132.72895746 91.96529403 135.28985113 89.6875 137.875 C81.36930238 147.1357272 72.51524655 155.972592 63 164 C62.02289062 164.86625 61.04578125 165.7325 60.0390625 166.625 C47.25409833 177.91125725 33.42203222 187.85615297 18.91259766 196.81054688 C16.80768017 198.11960457 14.72348932 199.45909712 12.63671875 200.796875 C-0.94794409 209.36102758 -15.24264763 215.74465253 -30 222 C-31.72283203 222.75603516 -31.72283203 222.75603516 -33.48046875 223.52734375 C-89.65858469 247.03361424 -148.00542268 250.15774551 -208 247 C-208.03232817 227.76697988 -207.95101939 208.53679632 -207.79807091 189.30440044 C-207.76925911 185.65169044 -207.7417007 181.99897093 -207.71398926 178.34625244 C-207.6617182 171.4800221 -207.60837759 164.61380054 -207.5546174 157.74758172 C-207.49329961 149.9091195 -207.43322792 142.07064786 -207.37324238 134.23217535 C-207.25017975 118.15477298 -207.12561246 102.07738266 -207 86 C-205.85882721 86.00344421 -204.71765442 86.00688843 -203.54190063 86.01043701 C-202.01572687 86.01322374 -200.48955295 86.01592507 -198.96337891 86.01855469 C-198.21468033 86.02104218 -197.46598175 86.02352966 -196.69459534 86.02609253 C-168.74220959 86.06208069 -141.70425177 82.16818411 -115 74 C-114.17467773 73.74911621 -113.34935547 73.49823242 -112.49902344 73.23974609 C-77.2809217 62.3000441 -45.46285801 42.8801528 -18.34375 18.12109375 C-16.20075688 16.18168497 -14.01655362 14.30670701 -11.8125 12.4375 C-7.8041381 8.95869811 -4.41101177 5.05366616 -1 1 C-0.67 0.67 -0.34 0.34 0 0 Z " fill="#E0300A" transform="translate(799,753)"/>
<path d="M0 0 C2.77929777 3.35865078 5.18644837 6.7591116 7.44140625 10.48828125 C8.42572632 12.1117749 8.42572632 12.1117749 9.42993164 13.76806641 C10.14091699 14.94946651 10.85176915 16.13094677 11.5625 17.3125 C12.31289173 18.55398126 13.06346541 19.79535256 13.81420898 21.03662109 C19.85886606 31.04551513 25.81812507 41.10487547 31.77127075 51.16836548 C37.71482228 61.21215921 43.7693272 71.17701109 49.91967773 81.09594727 C56.2674328 91.36360222 62.41328454 101.7484728 68.53125 112.15429688 C69.29399055 113.44808194 70.05700361 114.74170641 70.8203125 116.03515625 C71.36356171 116.9590062 71.36356171 116.9590062 71.91778564 117.90151978 C74.41281436 122.1103685 77.08426752 126.13957984 79.99951172 130.06811523 C81.27727287 132.5353978 81.24355143 134.25498974 81 137 C80.01171875 139.578125 80.01171875 139.578125 78.6875 142.25 C77.04136156 145.69486836 75.57455661 149.04260187 74.4375 152.6875 C73.29973092 156.29364945 71.84070484 159.54867843 70.0625 162.8828125 C68.03018393 166.93250114 66.3454807 171.1337654 64.66796875 175.33984375 C59.3496483 188.26378341 52.21256515 200.05791825 45 212 C44.53126465 212.78503906 44.0625293 213.57007813 43.57958984 214.37890625 C25.70512988 244.28046963 -0.11518149 279.91923855 -35.5625 289.4375 C-37.03424215 289.67638352 -38.51567984 289.85898958 -40 290 C-41.0209375 290.10441406 -42.041875 290.20882813 -43.09375 290.31640625 C-56.98228971 291.05149788 -69.39160516 285.77686001 -80 277 C-80.80566406 276.35546875 -81.61132812 275.7109375 -82.44140625 275.046875 C-89.72772442 268.88942302 -95.36334726 261.63357425 -101 254 C-101.68449219 253.07445312 -102.36898437 252.14890625 -103.07421875 251.1953125 C-113 237.37242408 -113 237.37242408 -113 233 C-113.66 233 -114.32 233 -115 233 C-126.46911087 209.00394764 -126.46911087 209.00394764 -127.46875 203.34765625 C-127.79965741 200.81848009 -127.79965741 200.81848009 -130.0625 199.1875 C-130.701875 198.795625 -131.34125 198.40375 -132 198 C-123.25164586 147.06513814 -84.80302548 92.58179681 -52 54 C-51.55479004 53.47132324 -51.10958008 52.94264648 -50.65087891 52.39794922 C-40.17887936 39.96399913 -29.22369824 28.14276328 -17.75 16.625 C-16.91017578 15.78050293 -16.07035156 14.93600586 -15.20507812 14.06591797 C-10.29965472 9.17309743 -5.28550742 4.4803937 0 0 Z " fill="#DC2E09" transform="translate(298,229)"/>
<path d="M0 0 C3.07185025 2.86756464 5.27209943 5.76560849 7.453125 9.3515625 C8.071875 10.36734375 8.690625 11.383125 9.328125 12.4296875 C9.96234375 13.48414063 10.5965625 14.53859375 11.25 15.625 C12.22453125 17.21828125 12.22453125 17.21828125 13.21875 18.84375 C18 26.73883929 18 26.73883929 18 29 C18.66 29 19.32 29 20 29 C18.31643762 32.93150079 15.67412648 36.02656719 13 39.3125 C3.35744766 51.40466148 -4.81899986 64.31048752 -12 78 C-12.42925781 78.8137207 -12.85851562 79.62744141 -13.30078125 80.46582031 C-44.59357253 140.59397185 -49.97793245 211.41986917 -30 276 C-29.16756124 278.37118919 -28.33073802 280.73856433 -27.45532227 283.09423828 C-27 285 -27 285 -28 288 C-28.99 285.36 -29.98 282.72 -31 280 C-35.84713019 282.61186213 -39.9953221 285.46964622 -44.125 289.125 C-48.93978169 293.29293683 -53.8462118 297.24661728 -58.92138672 301.0949707 C-63.27437101 304.40977664 -67.51929623 307.84342597 -71.75 311.3125 C-77.31030225 315.86880279 -82.95414768 320.28870485 -88.6875 324.625 C-94.34987949 328.91161772 -99.8462726 333.32758273 -105.234375 337.95288086 C-109.31876729 341.45001283 -113.47517543 344.84555302 -117.6875 348.1875 C-118.28844482 348.66977051 -118.88938965 349.15204102 -119.50854492 349.64892578 C-123.76343839 353 -123.76343839 353 -126 353 C-126 353.66 -126 354.32 -126 355 C-127.79961789 356.51919798 -129.6046489 357.92084119 -131.5 359.3125 C-137.64838417 363.91946559 -143.61556317 368.71620271 -149.52929688 373.62036133 C-152.89003366 376.38332356 -156.17452503 378.88863208 -160 381 C-162.39365898 374.9903881 -164.32213385 368.98580464 -165.83984375 362.6953125 C-168.00085196 353.87558793 -170.37934118 345.12303793 -172.8125 336.375 C-173.02965668 335.59141113 -173.24681335 334.80782227 -173.47055054 334.00048828 C-176.31871984 323.73858107 -179.32267086 313.55593982 -182.65625 303.43945312 C-184.92121651 296.48665931 -186.74349304 289.46011702 -188.40356445 282.33984375 C-188.5862085 281.56511719 -188.76885254 280.79039062 -188.95703125 279.9921875 C-189.11147705 279.31526855 -189.26592285 278.63834961 -189.42504883 277.94091797 C-190.05683007 275.80815327 -190.99473855 273.97999161 -192 272 C-192.44133657 270.07235576 -192.83016309 268.13246802 -193.1875 266.1875 C-194.46417474 259.98741128 -196.15979956 254.03468021 -198.0625 248 C-202.69442879 233.23357902 -206.49093106 218.24112594 -210.36451721 203.26225281 C-211.39151135 199.29869432 -212.4554076 195.35010424 -213.5703125 191.41015625 C-215.38328215 184.80847222 -216.77537619 178.11415615 -218.16210938 171.4128418 C-218.62247315 169.1996478 -219.09620672 166.98958196 -219.5703125 164.77929688 C-221.21968666 156.93091715 -222.34797262 149.32937358 -222.76416016 141.29980469 C-222.99407499 138.08290108 -223.47370979 135.01940484 -224.046875 131.84765625 C-225.34196313 123.91463963 -225.30079123 116.02040151 -225.26074219 108.00366211 C-225.24988662 105.41041389 -225.2607674 102.81783847 -225.2734375 100.22460938 C-225.27211801 98.56510265 -225.26956 96.90559634 -225.265625 95.24609375 C-225.27169769 94.0914286 -225.27169769 94.0914286 -225.27789307 92.91343689 C-225.2446976 89.13002817 -225.12524836 86.20844968 -223 83 C-222.65332275 83.60360352 -222.30664551 84.20720703 -221.94946289 84.82910156 C-211.95496705 102.16457029 -201.627068 118.12303805 -187 132 C-186.44183594 132.52980469 -185.88367188 133.05960938 -185.30859375 133.60546875 C-176.29420358 141.85500158 -166.5578702 147.1272058 -155 151 C-153.95585937 151.37125 -153.95585937 151.37125 -152.890625 151.75 C-137.30169536 156.54659374 -118.70245568 151.61803352 -104.69458008 144.26660156 C-82.94603626 132.28953679 -65.31029473 114.09790539 -51 94 C-50.09229895 92.77128273 -49.18337781 91.54346613 -48.2734375 90.31640625 C-37.40194915 75.48305822 -28.01833752 59.54703598 -20 43 C-19.34 43 -18.68 43 -18 43 C-17.9175 42.34 -17.835 41.68 -17.75 41 C-16.92903164 37.71612658 -15.61252569 35.12162769 -14.0546875 32.13671875 C-12.43149792 28.8482569 -11.23275762 25.45172133 -10 22 C-9.34 22 -8.68 22 -8 22 C-7.6596875 20.14375 -7.6596875 20.14375 -7.3125 18.25 C-6.07728035 12.62885551 -4.15639318 4.15639318 0 0 Z " fill="#DB2F0A" transform="translate(390,382)"/>
<path d="M0 0 C49.42068806 17.82500065 95.90650505 43.91169813 136 78 C136.52867676 78.44520996 137.05735352 78.89041992 137.60205078 79.34912109 C150.03600087 89.82112064 161.85723672 100.77630176 173.375 112.25 C174.21949707 113.08982422 175.06399414 113.92964844 175.93408203 114.79492188 C180.82973046 119.70318045 185.49396232 124.73378883 190 130 C190.92545246 131.04831699 191.85245346 132.09526967 192.78125 133.140625 C201.43718483 142.99227929 209.26724738 153.41545209 217 164 C217.53657227 164.7312207 218.07314453 165.46244141 218.62597656 166.21582031 C246.83335218 204.81067394 273.41028463 252.01133801 284.4609375 299.0234375 C285.21616141 301.79259182 286.29183157 304.40405938 287.4140625 307.04296875 C288.12581206 309.42021229 288.03804279 311.53000873 288 314 C261.59492282 314.51931317 234.56289333 313.96719591 210 303 C208.69418933 302.58262874 207.38221158 302.18358169 206.0625 301.8125 C174.28640094 291.36408777 147.42738815 266.4484061 128 240 C127.21882812 238.96359375 126.43765625 237.9271875 125.6328125 236.859375 C108.53568982 213.85891948 94.65236393 188.4060465 82.54785156 162.48852539 C78.33914401 153.49427795 73.6897023 144.750411 69 136 C67.73057395 133.62569417 66.46255364 131.25066719 65.19750977 128.87402344 C64.42336004 127.42010555 63.64667615 125.96753291 62.86694336 124.51660156 C61.02822824 121.06821248 59.42206038 117.63608122 58 114 C47.43550794 91.7062129 35.39943389 70.04867874 21 50 C20.23164774 48.89030836 19.46482577 47.77955618 18.69921875 46.66796875 C13.92247235 39.78275502 8.94527868 33.46746302 3.19921875 27.3515625 C1.38254055 25.4090398 -0.32963243 23.4421411 -2 21.375 C-3.77719875 18.94636266 -3.77719875 18.94636266 -6 18 C-4.83805848 11.53287812 -2.8751252 5.90377651 0 0 Z " fill="#CF2A09" transform="translate(768,142)"/>
<path d="M0 0 C4.15932525 1.8652446 6.36146845 4.61490197 9.0625 8.1875 C9.54146729 8.81188965 10.02043457 9.4362793 10.51391602 10.07958984 C11.51890472 11.39515767 12.51973615 12.71391068 13.51660156 14.03564453 C14.91370283 15.885723 16.32671178 17.72256334 17.7421875 19.55859375 C44.06968661 54.1372837 62.89444082 95.88899857 81.25 135.125 C85.95263478 145.14958314 91.2146254 154.8386373 96.60986328 164.50488281 C97.86376579 166.75547706 99.10440904 169.01267237 100.33984375 171.2734375 C123.25348948 212.97237515 153.34658726 251.54309505 196.0625 274.0625 C196.94276855 274.52769043 197.82303711 274.99288086 198.72998047 275.47216797 C203.42812261 277.88632891 207.86070893 279.76573335 213 281 C213 281.66 213 282.32 213 283 C213.85658203 283.14695312 213.85658203 283.14695312 214.73046875 283.296875 C220.9219976 284.43871498 226.79680572 286.14062151 232.79296875 288.046875 C237.14451239 289.34014741 241.52911116 290.23298521 246 291 C246 291.66 246 292.32 246 293 C237.93297386 294.34450436 237.93297386 294.34450436 229.86594772 295.68900871 C228.88666935 295.85222178 227.90739098 296.01543484 226.8984375 296.18359375 C216.18261719 297.9695638 205.46679688 299.75553385 194.75097656 301.54150391 C193.65853008 301.72357832 192.5660836 301.90565273 191.44053268 302.09324455 C183.75891876 303.37351354 176.07730484 304.65378253 168.39569092 305.93405151 C167.32918934 306.11180178 166.26268776 306.28955204 165.16386795 306.47268867 C157.59675789 307.73387369 150.02964783 308.9950587 142.46253777 310.25624371 C141.31947513 310.44675415 141.31947513 310.44675415 140.15332031 310.64111328 C137.98269272 311.00288455 135.81206512 311.36465581 133.64143753 311.72642708 C132.96827877 311.8386202 132.29512001 311.95081333 131.6015625 312.06640625 C126.734375 312.87760417 121.8671875 313.68880208 117 314.5 C115.87857605 314.68690399 114.7571521 314.87380798 113.60174561 315.06637573 C109.66171265 315.72304789 105.72167969 316.37972005 101.78164673 317.03639221 C101.00678925 317.16553513 100.23193176 317.29467804 99.43359375 317.42773438 C98.30050781 317.61658203 97.16742187 317.80542969 96 318 C95.71592285 317.29762207 95.4318457 316.59524414 95.13916016 315.87158203 C82.11147446 284.08901361 65.68832711 255.83274694 43 230 C42.13246094 229.00871094 41.26492188 228.01742187 40.37109375 226.99609375 C36.14939541 222.25876813 31.88374941 217.79234418 27.01953125 213.71484375 C25.63064929 212.53550297 24.27491735 211.31635065 22.94921875 210.06640625 C0.08534338 188.54514187 -29.40924641 171.42893633 -59 161 C-56.35767775 153.70479374 -53.68045837 146.42347488 -50.97265625 139.15234375 C-41.01753796 112.37400022 -31.18672926 85.556535 -21.48388672 58.68579102 C-14.40730502 39.09233096 -7.24094482 19.53327972 0 0 Z " fill="#DB2E0A" transform="translate(755,177)"/>
<path d="M0 0 C0 0.66 0 1.32 0 2 C-1.03898438 2.50789063 -2.07796875 3.01578125 -3.1484375 3.5390625 C-18.38188583 11.03410206 -32.19994231 19.28957847 -44.7109375 30.921875 C-47 33 -47 33 -49.52734375 34.95703125 C-54.03551253 38.68178997 -57.38831928 43.42905688 -61 48 C-61.77472656 48.94746094 -62.54945313 49.89492187 -63.34765625 50.87109375 C-83.26606196 75.7771978 -97.06726964 105.22269495 -108 135 C-108.49932882 136.32837749 -108.99938103 137.65648319 -109.5 138.984375 C-115.91533316 156.0931977 -121.7427313 173.41355499 -127.62290955 190.71166992 C-128.85855738 194.34625374 -130.0957354 197.98031635 -131.33273315 201.61444092 C-132.22462718 204.23786811 -133.11352 206.86229814 -134.00219727 209.48681641 C-137.48140564 219.73242922 -141.13062037 229.8951555 -145 240 C-148.60501247 236.62042186 -151.19773186 233.36789514 -153.64453125 229.08203125 C-153.97095108 228.51664642 -154.29737091 227.9512616 -154.63368225 227.3687439 C-155.33432519 226.15399612 -156.03159867 224.93729967 -156.72576904 223.71884155 C-158.60055162 220.43010121 -160.50237504 217.15704613 -162.40234375 213.8828125 C-162.78892151 213.21543564 -163.17549927 212.54805878 -163.5737915 211.86045837 C-167.22942468 205.56670629 -171.03329184 199.36926354 -174.875 193.1875 C-180.84304324 183.56490182 -186.67398681 173.87097408 -192.4375 164.125 C-198.65571401 153.61349056 -204.91220288 143.12741453 -211.25 132.6875 C-211.92861084 131.56811035 -212.60722168 130.4487207 -213.30639648 129.29541016 C-217.01049148 123.20546257 -220.7933555 117.18867244 -224.74121094 111.25317383 C-226 109 -226 109 -226 106 C-224.12109375 104.16015625 -224.12109375 104.16015625 -221.4375 102.0625 C-220.426875 101.26457031 -219.41625 100.46664062 -218.375 99.64453125 C-217.82585937 99.2160791 -217.27671875 98.78762695 -216.7109375 98.34619141 C-214.97839115 96.98299783 -213.26851238 95.59544003 -211.5625 94.19921875 C-159.61819768 51.80976964 -70.54426586 -4.6258535 0 0 Z " fill="#E5E7E8" transform="translate(525,122)"/>
<path d="M0 0 C4.86581879 2.55899107 8.50635293 6.10454788 12.4375 9.875 C16.84601817 14.07569434 21.27368264 18.15758434 26 22 C21.02781587 29.21055171 15.08144892 35.1912758 8.87841797 41.32739258 C7.130607 43.05695155 5.39092753 44.79437399 3.65234375 46.53320312 C-2.06461843 52.2320982 -7.83678382 57.78042147 -14 63 C-15.0487402 63.92497285 -16.09568237 64.85198918 -17.140625 65.78125 C-26.99227929 74.43718483 -37.41545209 82.26724738 -48 90 C-48.7312207 90.53657227 -49.46244141 91.07314453 -50.21582031 91.62597656 C-112.64737864 137.25460968 -187.23799205 165.707192 -263.8125 175.25 C-264.81144287 175.37462616 -264.81144287 175.37462616 -265.83056641 175.50177002 C-270.21628218 176.04237606 -274.60565894 176.53510674 -279 177 C-279.99008057 177.10820068 -280.98016113 177.21640137 -282.00024414 177.32788086 C-293.23773833 178.38148281 -304.53830892 178.10839693 -315.8125 178.0625 C-317.9694 178.05747453 -320.12630114 178.05291348 -322.28320312 178.04882812 C-327.52218689 178.03876477 -332.76101033 178.01917483 -338 178 C-338 168.1 -338 158.2 -338 148 C-333.97941406 148.03480469 -329.95882812 148.06960938 -325.81640625 148.10546875 C-284.81189345 148.53958337 -284.81189345 148.53958337 -244 145 C-242.92830566 144.85546387 -241.85661133 144.71092773 -240.75244141 144.56201172 C-212.80339323 140.675058 -185.23307746 133.37510831 -159 123 C-158.26628174 122.71817871 -157.53256348 122.43635742 -156.77661133 122.14599609 C-138.80339398 115.14664494 -121.3178484 106.26864105 -105 96 C-104.31325195 95.57541504 -103.62650391 95.15083008 -102.91894531 94.71337891 C-91.7535702 87.79965167 -81.28766534 80.15462647 -71 72 C-69.98035156 71.195625 -68.96070313 70.39125 -67.91015625 69.5625 C-61.973536 64.79276207 -56.35054415 59.73342939 -50.7734375 54.5546875 C-48.52922965 52.48748759 -46.25814141 50.4796492 -43.9375 48.5 C-36.01192724 41.61465867 -28.80152139 33.9838171 -22 26 C-21.00117859 24.85183823 -20.00105231 23.70481098 -19 22.55859375 C-12.53095943 15.14411452 -6.16902268 7.66744163 0 0 Z " fill="#B72309" transform="translate(929,869)"/>
<path d="M0 0 C6.80694126 4.5313936 11.47812432 10.914404 13.69921875 18.796875 C15.63871738 30.27699555 14.43752249 38.50060608 8.52734375 48.4375 C6.69921875 50.796875 6.69921875 50.796875 3.45703125 52.68359375 C1.77967726 53.89026402 1.77967726 53.89026402 0.69921875 55.796875 C0.21986888 60.69433866 0.78787641 65.48710974 1.32421875 70.359375 C1.57011911 72.98533205 1.81235254 75.61163526 2.05078125 78.23828125 C2.22939697 80.16607422 2.22939697 80.16607422 2.41162109 82.1328125 C3.21252927 92.33657305 2.51894418 102.47911236 1.82421875 112.671875 C1.74558594 113.93128906 1.66695312 115.19070313 1.5859375 116.48828125 C1.1737736 122.65805782 0.60571582 128.72843309 -0.34375 134.83984375 C-1.42104218 141.98367511 -1.62402736 149.01999131 -1.73828125 156.234375 C-4.1523078 258.8132605 -41.78927785 361.35038058 -108.30078125 439.796875 C-109.2983784 440.98029907 -110.29576072 442.16390426 -111.29296875 443.34765625 C-113.95510391 446.50349648 -116.62581056 449.65190946 -119.30078125 452.796875 C-122.8090604 451.27608427 -125.25349771 449.1973077 -128.05078125 446.609375 C-128.92476562 445.80886719 -129.79875 445.00835938 -130.69921875 444.18359375 C-131.55773437 443.39597656 -132.41625 442.60835937 -133.30078125 441.796875 C-134.75421509 440.4996977 -136.21205756 439.20743008 -137.67578125 437.921875 C-138.28164063 437.38820313 -138.8875 436.85453125 -139.51171875 436.3046875 C-141.38833396 434.72308604 -143.32425775 433.25096938 -145.30078125 431.796875 C-143.78904887 427.18348481 -141.13373786 423.75119688 -138.17578125 419.984375 C-108.82080083 381.6722577 -85.81700413 338.27084296 -64.38867188 295.1784668 C-62.67389524 291.73058282 -60.95267887 288.2859729 -59.23046875 284.84179688 C-49.99539412 266.34323656 -40.75844266 247.81474791 -32.48828125 228.859375 C-32.03235596 227.8178125 -31.57643066 226.77625 -31.10668945 225.703125 C-27.81840645 218.12804737 -24.74362445 210.51515288 -21.98779297 202.72998047 C-21.23178504 200.60273427 -20.45616018 198.48313861 -19.6796875 196.36328125 C-17.32554179 189.88343573 -15.01084469 183.49695654 -13.73046875 176.703125 C-13.2578518 174.60642436 -12.54264899 172.72614274 -11.73828125 170.734375 C-10.65627739 168.0131353 -10.04776776 165.58436414 -9.73828125 162.671875 C-9.30078125 158.796875 -9.30078125 158.796875 -8.3359375 156.06640625 C-6.91453441 151.57691801 -6.54706217 147.12463294 -6.08984375 142.45507812 C-5.69650092 138.85056583 -5.3508612 136.87199493 -3.30078125 133.796875 C-2.82809729 130.98592185 -2.46561541 128.25306495 -2.19140625 125.421875 C-2.10731506 124.58188965 -2.02322388 123.7419043 -1.93658447 122.87646484 C-1.12626957 114.07422862 -0.99790966 105.29710127 -1.04003906 96.46289062 C-1.05077694 93.79794589 -1.04005249 91.13367485 -1.02734375 88.46875 C-1.02429455 78.81547206 -1.40502238 69.41958968 -2.95904541 59.87390137 C-3.47857632 56.14085427 -3.66069776 54.3172032 -1.47338867 51.1550293 C0.76171875 49.359375 0.76171875 49.359375 3.29296875 47.6640625 C8.4182134 43.68700578 10.23529515 37.13892659 11.1015625 30.8984375 C11.38857041 22.7014915 9.38307389 14.99098927 4.34765625 8.4296875 C-3.00911712 1.14264658 -11.99664425 -1.31896106 -22.0078125 -1.859375 C-23.14283203 -2.02953125 -23.14283203 -2.02953125 -24.30078125 -2.203125 C-24.79578125 -3.193125 -24.79578125 -3.193125 -25.30078125 -4.203125 C-16.50452639 -6.87934405 -7.79817157 -4.2813491 0 0 Z " fill="#C7CACE" transform="translate(1075.30078125,438.203125)"/>
<path d="M0 0 C0.33 0 0.66 0 1 0 C1.10022461 1.03592285 1.20044922 2.0718457 1.30371094 3.13916016 C3.88923681 29.6520607 7.56379564 55.02201429 14.19921875 80.86328125 C15.98671943 87.86105439 17.59921194 94.8923043 19.1875 101.9375 C20.83973477 109.20786684 22.56459198 116.3703282 24.88671875 123.4609375 C26.47201105 128.50049829 27.84636677 133.59482573 29.25 138.6875 C31.69151087 147.50535184 34.27621751 156.26533825 37 165 C39.97110578 174.53565801 42.76098702 184.10616536 45.42138672 193.73291016 C47.4220793 200.967588 49.50262322 208.17514754 51.625 215.375 C53.92956126 223.20987516 56.10905357 231.0632158 58.15234375 238.9699707 C59.72402962 245.02600206 61.40273667 251.04762981 63.125 257.0625 C63.36677979 257.90707764 63.60855957 258.75165527 63.85766602 259.62182617 C64.09283936 260.4388501 64.3280127 261.25587402 64.5703125 262.09765625 C64.80008789 262.89961426 65.02986328 263.70157227 65.26660156 264.52783203 C65.78053466 266.26021769 66.32131441 267.98475928 66.88183594 269.70263672 C67.16575195 270.58322754 67.44966797 271.46381836 67.7421875 272.37109375 C68.13833252 273.55916626 68.13833252 273.55916626 68.54248047 274.77124023 C69.06096877 277.29700316 68.96753488 278.61873396 68 281 C65.8286731 282.92683433 63.69939174 284.65543658 61.375 286.375 C60.09538148 287.34637624 58.81672489 288.31902103 57.5390625 289.29296875 C56.92579102 289.75751465 56.31251953 290.22206055 55.68066406 290.70068359 C53.63152264 292.28486876 51.68302637 293.96422756 49.75 295.6875 C47 298 47 298 45 298 C44.67 298.66 44.34 299.32 44 300 C19.21255566 250.86182142 2.57261456 198.93431591 -4.25 144.1875 C-4.37462616 143.18855713 -4.37462616 143.18855713 -4.50177002 142.16943359 C-6.13277697 128.93774111 -7.15301615 115.8160329 -7.203125 102.4765625 C-7.21009399 101.22408218 -7.21706299 99.97160187 -7.22424316 98.6811676 C-7.24154067 94.66240708 -7.24841822 90.64378948 -7.25 86.625 C-7.25058914 85.94155643 -7.25117828 85.25811287 -7.25178528 84.55395889 C-7.26415938 64.23206104 -7.04876043 44.13843167 -4 24 C-3.82355957 22.82663086 -3.64711914 21.65326172 -3.46533203 20.44433594 C-2.41382211 13.60998383 -1.26944959 6.79722853 0 0 Z " fill="#BC240A" transform="translate(147,495)"/>
<path d="M0 0 C1.81302797 0.28836655 3.6253932 0.58090027 5.4375 0.875 C6.95150391 1.11863281 6.95150391 1.11863281 8.49609375 1.3671875 C11.14509827 1.84560303 13.73873914 2.38535592 16.359375 2.98828125 C20.82041647 3.99596061 25.28488207 4.68353281 29.8125 5.3125 C37.9533725 6.4851678 46.03581551 7.88979143 54.125 9.375 C84.40110268 14.87186164 114.96125083 18.64951927 145.46069336 22.66540527 C151.80770968 23.50172735 158.15397984 24.34365397 164.5 25.1875 C166.28929932 25.42521118 166.28929932 25.42521118 168.11474609 25.66772461 C176.04823322 26.72653181 183.97240027 27.84145282 191.89331055 28.99023438 C199.58360068 30.09980571 207.2868149 31.06288405 215 32 C215 42.23 215 52.46 215 63 C204.96684324 63 195.36457207 62.80792376 185.4375 61.8125 C184.78036011 61.74753326 184.12322021 61.68256653 183.44616699 61.6156311 C122.06188301 55.47224614 53.19238157 38.34127149 1 4 C0.1875 1.8125 0.1875 1.8125 0 0 Z " fill="#CFD2D5" transform="translate(376,984)"/>
<path d="M0 0 C2.1796875 0.359375 2.1796875 0.359375 4 1 C10.79630196 26.21680165 10.79630196 26.21680165 13 34.5 C13.30035156 35.62535156 13.60070312 36.75070312 13.91015625 37.91015625 C14.53087646 40.23619168 15.14901645 42.56287706 15.76513672 44.89013672 C21.43214718 67.05568767 21.43214718 67.05568767 28.8125 88.6875 C29.94944689 91.85898343 30 93.71659493 30 97 C30.67210423 98.64315703 31.35208854 100.28356 32.07275391 101.90600586 C33.07693491 104.17374163 34.03038568 106.45909226 34.98046875 108.75 C40.58629559 122.13484884 46.23376245 135.53640925 55.06640625 147.16796875 C56 149 56 149 55.8046875 150.99609375 C54.93311174 153.16657126 53.87284447 154.93864527 52.5625 156.875 C47.86388859 164.23525255 47.17622645 170.95182632 48.625 179.4375 C50.54166882 187.25264963 55.4752903 193.47265041 62 198 C71.19801117 202.51832128 79.36913943 203.00995724 89.20703125 200.1875 C95.05190418 197.70240718 99.51303513 193.2304473 103 188 C106.59009955 189.41903753 110.13943208 190.91689946 113.6875 192.4375 C118.2197034 194.33379615 122.71544489 195.93294062 127.453125 197.2265625 C129.57425371 197.87070895 131.65759693 198.63767094 133.7265625 199.43359375 C138.85969876 201.38793094 144.13945884 202.69734497 149.46484375 204.01757812 C154.37425174 205.30974769 157.9361306 206.94236024 162 210 C158.91981282 211.54009359 156.81605688 210.31664144 153.54296875 209.41015625 C152.56596008 209.14065407 152.56596008 209.14065407 151.56921387 208.8657074 C149.4393097 208.27372564 147.31326749 207.66915692 145.1875 207.0625 C144.46768951 206.85947266 143.74787903 206.65644531 143.0062561 206.44726562 C131.34023253 203.14706782 119.97489299 199.33476124 108.76049805 194.70507812 C107.195776 194.07840814 105.59905075 193.53301692 104 193 C103.38125 193.886875 102.7625 194.77375 102.125 195.6875 C98.04483242 200.63528942 91.96512145 203.01162618 86 205 C74.99949669 205.9456363 66.40275293 205.48359761 57 199 C54 196.4375 54 196.4375 52 194 C50.948125 192.8553125 50.948125 192.8553125 49.875 191.6875 C44.41254416 183.85797996 43.25790771 174.75976745 44.625 165.4375 C45.58537475 160.65591585 47.4080685 157.06416475 50.171875 153.0703125 C51.25993664 150.95811868 51.25993664 150.95811868 50.3046875 148.51171875 C49.08266947 146.15915111 47.79716726 143.92403679 46.375 141.6875 C38.75818294 129.16619586 32.20395463 115.55768075 27.94140625 101.51171875 C25.21016116 92.6776916 21.02020324 86.5562999 15.390625 79.40625 C5.5023846 66.77705875 -3.01353534 52.89789621 -11 39 C-11.44424316 38.23429688 -11.88848633 37.46859375 -12.34619141 36.6796875 C-13.76289758 34.23021953 -15.16497833 31.77295674 -16.5625 29.3125 C-17.0049707 28.54526611 -17.44744141 27.77803223 -17.90332031 26.98754883 C-18.30776367 26.26591553 -18.71220703 25.54428223 -19.12890625 24.80078125 C-19.49056885 24.16309814 -19.85223145 23.52541504 -20.22485352 22.8684082 C-21 21 -21 21 -21 17 C-18.85096436 15.02682165 -16.78065832 13.33501582 -14.4375 11.625 C-13.14599794 10.65515872 -11.85562032 9.68381815 -10.56640625 8.7109375 C-9.94652832 8.24655273 -9.32665039 7.78216797 -8.68798828 7.30371094 C-6.6452707 5.72602626 -4.75838062 4.01334098 -2.875 2.25 C-1.92625 1.5075 -0.9775 0.765 0 0 Z " fill="#C5C7C9" transform="translate(213,776)"/>
<path d="M0 0 C1.32 0 2.64 0 4 0 C4 1.98 4 3.96 4 6 C4.77085937 5.90460938 5.54171875 5.80921875 6.3359375 5.7109375 C7.84027344 5.54464844 7.84027344 5.54464844 9.375 5.375 C10.37273437 5.25898437 11.37046875 5.14296875 12.3984375 5.0234375 C13.25695312 5.01570313 14.11546875 5.00796875 15 5 C15.99 5.99 15.99 5.99 17 7 C17.53625 6.67 18.0725 6.34 18.625 6 C21.73799811 4.68926395 23.64137591 4.52979263 27 5 C29.27048342 6.48097442 31.02153745 8.11574995 33 10 C34.175625 9.0409375 34.175625 9.0409375 35.375 8.0625 C39.18335279 5.0702228 41.155128 4.62001004 46 5 C49.49406769 6.66762322 50.82670681 7.74006022 53 11 C53.73965025 15.59271203 53.60961194 19.02462089 51.125 23 C47.89512373 26.03988355 45.55772359 26.38342235 41.109375 26.3671875 C37.44062288 25.72855287 35.58457375 23.58457375 33 21 C32.34 21.825 31.68 22.65 31 23.5 C27.83504056 26.1374662 26.11460066 26.74936974 22 26.5 C18.4206621 25.60516552 16.55401774 23.61631085 14 21 C12.53078074 18.06156148 13 15.24602179 13 12 C12.505 11.505 12.505 11.505 12 11 C12 15.62 12 20.24 12 25 C5.87755102 26.2244898 5.87755102 26.2244898 2 25 C0.36328125 23.80859375 0.36328125 23.80859375 -1 22 C-1.29296875 19.30078125 -1.29296875 19.30078125 -1.1875 16.3125 C-1.14689453 14.82169922 -1.14689453 14.82169922 -1.10546875 13.30078125 C-1.07066406 12.54152344 -1.03585937 11.78226563 -1 11 C-1.66 11 -2.32 11 -3 11 C-2.94199219 12.09699219 -2.88398437 13.19398437 -2.82421875 14.32421875 C-2.77730312 15.77860314 -2.73180489 17.23303374 -2.6875 18.6875 C-2.64560547 19.40873047 -2.60371094 20.12996094 -2.56054688 20.87304688 C-2.46636904 24.99803607 -2.67166823 26.56279731 -5.23828125 29.98046875 C-8.77122664 32.5639663 -10.60249049 32.73288516 -14.8359375 32.4921875 C-18.39591677 31.68251712 -19.99025777 29.94762193 -22 27 C-21.75 24.8125 -21.75 24.8125 -21 23 C-21.495 22.01 -21.495 22.01 -22 21 C-22.66 22.65 -23.32 24.3 -24 26 C-25.32 25.67 -26.64 25.34 -28 25 C-28 20.38 -28 15.76 -28 11 C-29.98 11 -31.96 11 -34 11 C-34.33 15.62 -34.66 20.24 -35 25 C-36.32 25.33 -37.64 25.66 -39 26 C-39.66 24.68 -40.32 23.36 -41 22 C-41.66 22.66 -42.32 23.32 -43 24 C-47.01858853 26.67905902 -49.25305716 26.32182663 -54 26 C-54.33 27.65 -54.66 29.3 -55 31 C-56.65 30.67 -58.3 30.34 -60 30 C-60 22.08 -60 14.16 -60 6 C-46.875 4.39285714 -46.875 4.39285714 -43.1875 6.9375 C-42.465625 7.618125 -41.74375 8.29875 -41 9 C-40.34 8.01 -39.68 7.02 -39 6 C-34.74249807 4.77562036 -29.98734334 3.97804545 -25.94140625 6.05859375 C-24.3125 7.4375 -24.3125 7.4375 -22 10 C-21.13375 9.175 -20.2675 8.35 -19.375 7.5 C-16.91238703 5.43908985 -16.14244357 5.01675807 -12.8125 4.625 C-10 5 -10 5 -7 6 C-5.00038436 6.03920815 -2.99950636 6.04443347 -1 6 C-1.020625 5.195625 -1.04125 4.39125 -1.0625 3.5625 C-1 1 -1 1 0 0 Z M-16.1875 11.6875 C-18.29348392 13.85558728 -18.29348392 13.85558728 -17.875 16.625 C-17.13532087 19.14405125 -17.13532087 19.14405125 -15 21 C-11.90073181 20.67801034 -11.90073181 20.67801034 -9 20 C-8.67 17.69 -8.34 15.38 -8 13 C-11.91100351 9.60321548 -11.91100351 9.60321548 -16.1875 11.6875 Z M-53 11 C-55.29637779 13.75895635 -55.29637779 13.75895635 -54.75 16.5625 C-54.16191948 19.15000567 -54.16191948 19.15000567 -52 21 C-48.17435335 20.81242938 -48.17435335 20.81242938 -45 19 C-44.74994614 16.04182893 -44.74994614 16.04182893 -45 13 C-46.88659875 10.69337401 -46.88659875 10.69337401 -50 10.6875 C-50.99 10.790625 -51.98 10.89375 -53 11 Z M4 11 C4 13.97 4 16.94 4 20 C4.66 20 5.32 20 6 20 C6 17.03 6 14.06 6 11 C5.34 11 4.68 11 4 11 Z M19 12 C19 12.33 19 12.66 19 13 C21.97 13 24.94 13 28 13 C27.19815586 10.85008433 27.19815586 10.85008433 25.1875 10.25 C22.50171361 9.94305298 21.2747813 10.61888278 19 12 Z M39 11 C39 11.66 39 12.32 39 13 C41.64 13 44.28 13 47 13 C45.62514468 11.45833358 45.62514468 11.45833358 44 10 C41.78918149 9.89459074 41.78918149 9.89459074 39 11 Z M19 18 C19.99 19.485 19.99 19.485 21 21 C23.5 21.5 23.5 21.5 26 21 C26.66 20.01 27.32 19.02 28 18 C25.03 18 22.06 18 19 18 Z M38 18 C38.99 19.485 38.99 19.485 40 21 C42.5 21.5 42.5 21.5 45 21 C45.66 20.01 46.32 19.02 47 18 C44.03 18 41.06 18 38 18 Z M-15 26 C-15 26.33 -15 26.66 -15 27 C-13.35 27 -11.7 27 -10 27 C-10 26.67 -10 26.34 -10 26 C-11.65 26 -13.3 26 -15 26 Z " fill="#000000" transform="translate(579,1135)"/>
<path d="M0 0 C2.875 1.5 2.875 1.5 5 3 C5.515625 2.505 6.03125 2.01 6.5625 1.5 C9.87832303 -0.54050648 12.16691031 -0.34224015 16 0 C17.0209375 0.556875 17.0209375 0.556875 18.0625 1.125 C20.1059502 2.31363445 20.1059502 2.31363445 22.75 1.0625 C26.20859541 -0.06819465 28.43640505 0.18205554 31.98046875 0.78515625 C34.29618346 1.12267533 34.29618346 1.12267533 37.75 0.375 C41 0 41 0 43.1875 0.93359375 C46.04713221 4.19382099 45.42819941 7.51009449 45.25 11.6875 C45.23195313 12.48478516 45.21390625 13.28207031 45.1953125 14.10351562 C45.14822247 16.06952449 45.07647899 18.03491494 45 20 C43.68 20 42.36 20 41 20 C40.505 12.575 40.505 12.575 40 5 C39.01 5.33 38.02 5.66 37 6 C36.67 10.62 36.34 15.24 36 20 C34.35 20.33 32.7 20.66 31 21 C30 20 30 20 29.90234375 16.62109375 C29.90901631 15.22652923 29.92097468 13.83198257 29.9375 12.4375 C29.94201172 11.72658203 29.94652344 11.01566406 29.95117188 10.28320312 C29.96299136 8.52209987 29.98092737 6.76103964 30 5 C28.68 5.33 27.36 5.66 26 6 C26 10.62 26 15.24 26 20 C24.35 20.33 22.7 20.66 21 21 C20.34 20.34 19.68 19.68 19 19 C18.01 19.66 17.02 20.32 16 21 C8.83769634 21.45474944 8.83769634 21.45474944 5.8125 19.8125 C5.214375 19.544375 4.61625 19.27625 4 19 C3.21625 19.474375 2.4325 19.94875 1.625 20.4375 C-1 22 -1 22 -4 22 C-7.86962494 20.71012502 -9.53259128 19.24288003 -12 16 C-13.19391511 11.8959168 -13.28249307 9.77313893 -11.8125 5.75 C-8.53207377 0.77280158 -6.03866621 -0.73942852 0 0 Z M9.3125 6.125 C7.42739973 8.81800039 7.65877001 10.79243812 8 14 C8.66 14.66 9.32 15.32 10 16 C13.09926819 15.67801034 13.09926819 15.67801034 16 15 C16.04125 13.72125 16.0825 12.4425 16.125 11.125 C16.15980469 10.04605469 16.15980469 10.04605469 16.1953125 8.9453125 C16.18331689 6.76136355 16.18331689 6.76136355 14 5 C11.07800472 4.7226499 11.07800472 4.7226499 9.3125 6.125 Z M-6 6 C-7.38125018 8.76250036 -7.19079306 10.94731099 -7 14 C-5.16116119 16.28728734 -5.16116119 16.28728734 -2.375 16.125 C-1.59125 16.08375 -0.8075 16.0425 0 16 C0.33 15.01 0.66 14.02 1 13 C1.66 12.67 2.32 12.34 3 12 C3 11.01 3 10.02 3 9 C-1.00779295 5.08522233 -1.00779295 5.08522233 -6 6 Z " fill="#000000" transform="translate(649,1140)"/>
<path d="M0 0 C4.36687559 2.98137187 5.83453643 5.29151535 7.375 10.3125 C12.35836244 25.32487935 19.51453828 40.4491695 29.03125 53.09765625 C30 55 30 55 29.80859375 57.00390625 C28.93222323 59.16731367 27.87023837 60.94249641 26.5625 62.875 C21.86388859 70.23525255 21.17622645 76.95182632 22.625 85.4375 C24.54166882 93.25264963 29.4752903 99.47265041 36 104 C45.19801117 108.51832128 53.36913943 109.00995724 63.20703125 106.1875 C69.05190418 103.70240718 73.51303513 99.2304473 77 94 C80.59009955 95.41903753 84.13943208 96.91689946 87.6875 98.4375 C92.2197034 100.33379615 96.71544489 101.93294062 101.453125 103.2265625 C103.57425371 103.87070895 105.65759693 104.63767094 107.7265625 105.43359375 C112.85969876 107.38793094 118.13945884 108.69734497 123.46484375 110.01757812 C128.37425174 111.30974769 131.9361306 112.94236024 136 116 C132.91981282 117.54009359 130.81605688 116.31664144 127.54296875 115.41015625 C126.89162964 115.23048813 126.24029053 115.05082001 125.56921387 114.8657074 C123.4393097 114.27372564 121.31326749 113.66915692 119.1875 113.0625 C118.46768951 112.85947266 117.74787903 112.65644531 117.0062561 112.44726562 C105.34023253 109.14706782 93.97489299 105.33476124 82.76049805 100.70507812 C81.195776 100.07840814 79.59905075 99.53301692 78 99 C77.38125 99.886875 76.7625 100.77375 76.125 101.6875 C72.04483242 106.63528942 65.96512145 109.01162618 60 111 C48.99949669 111.9456363 40.40275293 111.48359761 31 105 C28 102.4375 28 102.4375 26 100 C24.948125 98.8553125 24.948125 98.8553125 23.875 97.6875 C18.41254416 89.85797996 17.25790771 80.75976745 18.625 71.4375 C19.58537475 66.65591585 21.4080685 63.06416475 24.171875 59.0703125 C25.25993664 56.95811868 25.25993664 56.95811868 24.3046875 54.51171875 C23.08266947 52.15915111 21.79716726 49.92403679 20.375 47.6875 C11.3988383 32.93156589 3.9899683 16.83486623 0 0 Z " fill="#FAF6EB" transform="translate(239,870)"/>
<path d="M0 0 C0.83915955 0.00060425 1.67831909 0.0012085 2.54290771 0.00183105 C14.90732645 0.02598434 27.14364601 0.19398464 39.375 2.1875 C40.2004834 2.32172363 41.0259668 2.45594727 41.87646484 2.59423828 C61.52579578 5.92132357 93.48858497 12.50624221 107.375 28.1875 C100.84691171 27.73205198 95.86271096 25.28551505 90.0625 22.375 C61.47155259 8.2146835 32.14361261 3.81935418 0.4375 3.8125 C-0.5072821 3.81059662 -1.45206421 3.80869324 -2.42547607 3.80673218 C-19.50543006 3.81062705 -36.42199737 4.97023289 -53.25 8 C-54.66986206 8.25112549 -54.66986206 8.25112549 -56.1184082 8.50732422 C-70.8550005 11.02713775 -70.8550005 11.02713775 -84.72265625 16.296875 C-87.41364332 17.5567211 -89.92425286 17.62005997 -92.875 17.8125 C-93.95265625 17.88726562 -95.0303125 17.96203125 -96.140625 18.0390625 C-96.96046875 18.08804688 -97.7803125 18.13703125 -98.625 18.1875 C-85.75536849 5.31786849 -50.08173818 2.6995753 -32.625 1.1875 C-31.60688232 1.09734619 -30.58876465 1.00719238 -29.53979492 0.91430664 C-19.6871204 0.12793585 -9.87975444 -0.01317724 0 0 Z " fill="#F9F5E9" transform="translate(624.625,101.8125)"/>
<path d="M0 0 C6.80694126 4.5313936 11.47812432 10.914404 13.69921875 18.796875 C15.63871738 30.27699555 14.43752249 38.50060608 8.52734375 48.4375 C6.69921875 50.796875 6.69921875 50.796875 3.45703125 52.68359375 C1.77967726 53.89026402 1.77967726 53.89026402 0.69921875 55.796875 C0.21986888 60.69433866 0.78787641 65.48710974 1.32421875 70.359375 C1.57011911 72.98533205 1.81235254 75.61163526 2.05078125 78.23828125 C2.1698584 79.52347656 2.28893555 80.80867187 2.41162109 82.1328125 C3.21252927 92.33657305 2.51894418 102.47911236 1.82421875 112.671875 C1.70626953 114.56099609 1.70626953 114.56099609 1.5859375 116.48828125 C1.01676238 125.00839492 0.02540771 133.36296407 -1.30078125 141.796875 C-1.63078125 141.796875 -1.96078125 141.796875 -2.30078125 141.796875 C-2.32799956 138.7968126 -2.34772503 135.79700244 -2.36328125 132.796875 C-2.37166016 131.95769531 -2.38003906 131.11851562 -2.38867188 130.25390625 C-2.39350586 129.00673828 -2.39350586 129.00673828 -2.3984375 127.734375 C-2.40629272 126.60322266 -2.40629272 126.60322266 -2.41430664 125.44921875 C-2.30078125 122.796875 -2.30078125 122.796875 -1.80517578 119.06958008 C-1.21093716 114.53751401 -1.13902587 110.06224477 -1.1328125 105.49609375 C-1.1294841 104.62024124 -1.1261557 103.74438873 -1.12272644 102.84199524 C-1.11768736 100.99224365 -1.11531718 99.14248306 -1.11547852 97.29272461 C-1.11331716 94.53027335 -1.09519891 91.76823886 -1.07617188 89.00585938 C-1.04967995 79.15774923 -1.36185757 69.5781295 -2.95588684 59.8391571 C-3.47821976 56.11536435 -3.65726548 54.31178608 -1.47363281 51.15771484 C0.76171875 49.359375 0.76171875 49.359375 3.29296875 47.6640625 C8.4182134 43.68700578 10.23529515 37.13892659 11.1015625 30.8984375 C11.38857041 22.7014915 9.38307389 14.99098927 4.34765625 8.4296875 C-3.00911712 1.14264658 -11.99664425 -1.31896106 -22.0078125 -1.859375 C-22.76449219 -1.9728125 -23.52117187 -2.08625 -24.30078125 -2.203125 C-24.63078125 -2.863125 -24.96078125 -3.523125 -25.30078125 -4.203125 C-16.50452639 -6.87934405 -7.79817157 -4.2813491 0 0 Z " fill="#FBF7EB" transform="translate(1075.30078125,438.203125)"/>
<path d="M0 0 C-0.33 0.99 -0.66 1.98 -1 3 C-2.36125 2.505 -2.36125 2.505 -3.75 2 C-11.52721801 -0.17258317 -19.67145421 -0.05511707 -26.90234375 3.671875 C-34.58039922 8.53321366 -39.04199238 13.8112798 -42.25 22.3125 C-44.17705246 31.7871746 -42.95403234 38.6306878 -38 47 C-33.83486305 53.03540475 -29.57085544 55.95960569 -23 59 C-22.94100379 62.77076545 -22.90607432 66.54140926 -22.875 70.3125 C-22.85824219 71.36501953 -22.84148437 72.41753906 -22.82421875 73.50195312 C-22.78079804 80.55781803 -23.4776333 87.10987473 -25 94 C-25.33 94 -25.66 94 -26 94 C-26 83.11 -26 72.22 -26 61 C-27.98 60.34 -29.96 59.68 -32 59 C-39.22945849 54.56132512 -43.21330392 47.85867579 -46 40 C-48.06469909 30.3362309 -47.13445092 21.38825433 -42.3125 12.75 C-36.76570539 4.20204115 -29.54417295 -0.3948255 -19.6875 -2.8125 C-13.07735418 -3.14860911 -5.85675351 -3.42459334 0 0 Z " fill="#FAF6EA" transform="translate(171,411)"/>
<path d="M0 0 C5.73535406 -0.24159333 10.29141857 0.39837079 15.7109375 2.37109375 C16.40514801 2.61287857 17.09935852 2.85466339 17.81460571 3.10377502 C20.005668 3.87014206 22.19015383 4.65361099 24.375 5.4375 C25.8628922 5.96009337 27.35117083 6.48158788 28.83984375 7.00195312 C39.47280649 10.73640325 39.47280649 10.73640325 42 12 C40.25192871 17.46737191 38.34205919 22.75824848 36 28 C35.113125 27.236875 34.22625 26.47375 33.3125 25.6875 C32.67054688 25.1409375 32.02859375 24.594375 31.3671875 24.03125 C29.610654 22.52399353 27.86795035 21.00058832 26.1328125 19.46875 C19.3771142 13.55961987 12.44936946 8.47458055 4.80078125 3.77734375 C2 2 2 2 0 0 Z " fill="#BABABD" transform="translate(726,130)"/>
<path d="M0 0 C3.25283201 1.41147116 5.22954548 3.09327373 7.625 5.6875 C14.40383337 12.62983028 22.45017612 17.51857058 31 22 C30 25 30 25 28.3203125 26.16796875 C22.25416924 28.98516339 16.66131059 30.28706739 10 29 C5.08574771 26.67435887 1.07214008 22.93591105 -1.3828125 18.05859375 C-3.22597278 11.91083763 -2.60770504 5.77867436 0 0 Z M1 5 C-0.38766322 11.05525768 0.50881854 14.32010626 3 20 C3.66 20 4.32 20 5 20 C5.33 20.99 5.66 21.98 6 23 C9.54352747 25.6323347 12.60046448 26.73602787 17 27 C20.78059045 26.14703322 20.78059045 26.14703322 24 25 C24 24.01 24 23.02 24 22 C21.64970681 20.15527009 21.64970681 20.15527009 18.625 18.375 C13.20195594 14.91403 8.55293122 11.11536728 3.86328125 6.6875 C2.29544198 4.88812009 2.29544198 4.88812009 1 5 Z " fill="#FAF6EB" transform="translate(277,937)"/>
<path d="M0 0 C-0.33 0.66 -0.66 1.32 -1 2 C-3.26331521 2.27502436 -5.49470023 2.31503437 -7.7734375 2.36328125 C-10.19974269 2.81117893 -10.19974269 2.81117893 -11.57983398 5.15380859 C-13.14521117 8.29102147 -13.58942694 10.69779374 -13.94921875 14.17578125 C-14.07490234 15.33271484 -14.20058594 16.48964844 -14.33007812 17.68164062 C-14.44802734 18.87982422 -14.56597656 20.07800781 -14.6875 21.3125 C-14.81705078 22.53001953 -14.94660156 23.74753906 -15.08007812 25.00195312 C-15.39755476 28.00034356 -15.70378626 30.99944687 -16 34 C-20.15375819 32.17130143 -21.71514227 29.93940988 -24 26 C-25.91473323 21.05360582 -25.61855099 15.81573704 -23.5 11 C-17.72917541 0.7762554 -11.43260974 -1.0979488 0 0 Z M-17 7 C-21.06785632 12.46254992 -22.91502858 16.13728568 -22 23 C-20.54107559 25.20305359 -20.54107559 25.20305359 -19 27 C-18.46867611 24.41842632 -17.94965621 21.83538244 -17.4375 19.25 C-17.21030273 18.15558594 -17.21030273 18.15558594 -16.97851562 17.0390625 C-16.25442822 13.33442927 -15.90182769 10.60677678 -17 7 Z " fill="#F7F3E8" transform="translate(166,424)"/>
<path d="M0 0 C6.43472948 1.12889991 10.72744965 2.92705103 15 8 C18.20408185 13.1309352 18.22727514 17.9125111 17.6171875 23.80078125 C16.9113283 26.31596309 15.98147846 27.34519772 14 29 C13.75765625 27.98679687 13.5153125 26.97359375 13.265625 25.9296875 C12.92769604 24.57797167 12.58911976 23.22641757 12.25 21.875 C12.09273437 21.20984375 11.93546875 20.5446875 11.7734375 19.859375 C10.60292199 15.26735262 8.98191128 11.78053492 6 8 C5.113125 7.67 4.22625 7.34 3.3125 7 C2.1678125 6.505 2.1678125 6.505 1 6 C0.1875 2.875 0.1875 2.875 0 0 Z M14 15 C15 17 15 17 15 17 Z " fill="#FBF7EC" transform="translate(1055,449)"/>
<path d="M0 0 C2.50037734 2.17424117 3.43628586 3.73045798 4 7 C3.01 6.67 2.02 6.34 1 6 C1 20.85 1 35.7 1 51 C0.67 51 0.34 51 0 51 C-0.75696908 44.94311982 -1.14880366 39.04952716 -1.1328125 32.94921875 C-1.13376923 32.12799026 -1.13472595 31.30676178 -1.13571167 30.46064758 C-1.13638658 28.74223757 -1.13458089 27.02382491 -1.13037109 25.30541992 C-1.12497818 22.67686286 -1.13035718 20.04847396 -1.13671875 17.41992188 C-1.13605852 15.74218712 -1.1347785 14.06445248 -1.1328125 12.38671875 C-1.13483673 11.60439377 -1.13686096 10.82206879 -1.13894653 10.01603699 C-1.12381993 6.50601373 -0.94245569 3.37682593 0 0 Z " fill="#B34E3B" transform="translate(166,465)"/>
<path d="M0 0 C1.32 0.66 2.64 1.32 4 2 C3.34 3.32 2.68 4.64 2 6 C1.01 5.67 0.02 5.34 -1 5 C-0.67 3.35 -0.34 1.7 0 0 Z " fill="#000000" transform="translate(633,1156)"/>
<path d="M0 0 C1.32 0.66 2.64 1.32 4 2 C3.4225 2.2475 2.845 2.495 2.25 2.75 C-0.3002997 4.16683317 -2.01785701 5.87627537 -4 8 C-4.66 7.67 -5.32 7.34 -6 7 C-4.02 4.69 -2.04 2.38 0 0 Z " fill="#C4442B" transform="translate(929,869)"/>
<path d="M0 0 C2.64 0.33 5.28 0.66 8 1 C7.01 1.495 7.01 1.495 6 2 C6.33 2.99 6.66 3.98 7 5 C2.25 3.125 2.25 3.125 0 2 C0 1.34 0 0.68 0 0 Z " fill="#C0B0AE" transform="translate(370,982)"/>
<path d="M0 0 C2.8290723 2.8290723 3.37611108 3.38144425 4 7 C3.01 6.67 2.02 6.34 1 6 C0.67 7.32 0.34 8.64 0 10 C0 6.7 0 3.4 0 0 Z " fill="#B7422D" transform="translate(166,465)"/>
</svg>
